<?xml version="1.0" encoding="UTF-8"?>
<!-- Generated by Pixelmator Pro 3.4.3 -->
<svg width="2800" height="785" viewBox="0 0 2800 785" xmlns="http://www.w3.org/2000/svg">
    <path id="d" fill="#ffffff" fill-rule="evenodd" stroke="none" d="M 2791.394531 1.545105 L 2670.944824 1.545105 L 2670.944824 176.421204 L 2666.181396 176.421204 C 2643.043945 135.594177 2615.143311 124.706848 2530.760498 124.706848 C 2447.73877 124.706848 2414.393799 130.150513 2385.13208 149.203186 C 2351.106934 171.658081 2338.177246 210.443787 2338.177246 292.098022 C 2338.177246 372.391205 2346.343506 405.052887 2372.883057 429.549194 C 2400.783936 454.725922 2442.294678 463.571686 2529.399414 463.571686 C 2616.504395 463.571686 2648.488037 452.004089 2671.625488 413.218353 L 2677.75 413.218353 L 2677.75 455.406311 L 2791.394531 455.406311 Z M 2570.22998 215.20697 C 2655.973633 215.20697 2671.625488 227.455078 2671.625488 294.139343 C 2671.625488 331.564148 2666.861816 348.575409 2653.251465 357.421265 C 2639.641357 366.947662 2606.977295 372.391205 2562.744629 372.391205 C 2472.237061 372.391205 2458.626953 361.503998 2458.626953 290.737091 C 2458.626953 226.094116 2474.958984 215.20697 2570.22998 215.20697 Z"/>
    <path id="r" fill="#ffffff" fill-rule="evenodd" stroke="none" d="M 1955.732788 133.552856 L 1955.732788 455.406311 L 2076.182373 455.406311 L 2076.182373 322.037872 C 2076.182373 272.364868 2079.584717 254.673096 2091.153564 239.022766 C 2102.721924 224.052856 2125.178711 215.887329 2152.398926 215.887329 C 2202.075928 215.887329 2215.686035 228.815979 2215.686035 276.447571 L 2329.330566 276.447571 L 2329.330566 254.673096 C 2329.330566 158.049072 2296.66626 125.38739 2199.35376 125.38739 C 2131.983643 125.38739 2097.958496 141.037842 2075.501709 181.864868 L 2069.377197 181.864868 L 2069.377197 133.552856 Z"/>
    <path id="a2" fill="#ffffff" fill-rule="evenodd" stroke="none" d="M 1622.965088 234.259644 C 1626.367554 205.000183 1635.214233 202.27832 1721.638428 202.27832 C 1794.452637 202.27832 1803.979736 209.082886 1803.979736 259.43634 L 1803.979736 276.447571 L 1798.535645 276.447571 C 1779.481445 256.033997 1763.149414 251.270874 1707.3479 251.270874 C 1618.881958 251.270874 1587.578735 253.312256 1558.317017 261.477661 C 1511.361938 273.725739 1489.585815 305.707031 1489.585815 363.545319 C 1489.585815 439.755981 1522.930664 463.571686 1629.770142 463.571686 C 1708.028442 463.571686 1738.651001 460.849976 1758.385864 452.684509 C 1780.162109 443.838623 1793.091675 432.270905 1803.299316 411.176941 L 1808.062866 411.176941 L 1808.062866 455.406311 L 1923.748779 455.406311 L 1923.748779 261.477661 C 1923.748779 202.958862 1916.943726 178.462524 1896.528564 156.688171 C 1869.30835 129.470032 1844.810181 124.706848 1739.331665 124.706848 C 1642.699829 124.706848 1586.898193 130.831055 1558.997437 143.759521 C 1521.56958 162.131714 1505.917847 187.308411 1502.515503 234.259644 Z M 1703.264893 319.31604 C 1754.302734 319.31604 1773.357056 319.99646 1780.842651 322.718262 C 1794.452637 327.481415 1801.938232 337.007813 1801.938232 349.93631 C 1801.938232 378.515259 1778.120605 386.680725 1693.057251 386.680725 C 1628.409058 386.680725 1610.035522 379.19577 1610.035522 353.338654 C 1610.035522 326.801025 1629.770142 319.31604 1703.264893 319.31604 Z"/>
    <path id="l2" fill="#ffffff" fill-rule="evenodd" stroke="none" d="M 1345.318604 1.545105 L 1345.318604 455.406311 L 1465.768188 455.406311 L 1465.768188 1.545105 Z"/>
    <path id="l" fill="#ffffff" fill-rule="evenodd" stroke="none" d="M 1190.843506 1.545105 L 1190.843506 455.406311 L 1311.293091 455.406311 L 1311.293091 1.545105 Z"/>
    <path id="a" fill="#ffffff" fill-rule="evenodd" stroke="none" d="M 858.075867 234.259644 C 861.478455 205.000183 870.325195 202.27832 956.74939 202.27832 C 1029.563599 202.27832 1039.090576 209.082886 1039.090576 259.43634 L 1039.090576 276.447571 L 1033.646484 276.447571 C 1014.592468 256.033997 998.260193 251.270874 942.458801 251.270874 C 853.99292 251.270874 822.689697 253.312256 793.427795 261.477661 C 746.4729 273.725739 724.696777 305.707031 724.696777 363.545319 C 724.696777 439.755981 758.041443 463.571686 864.881104 463.571686 C 943.13916 463.571686 973.761963 460.849976 993.496643 452.684509 C 1015.27301 443.838623 1028.202393 432.270905 1038.410034 411.176941 L 1043.173584 411.176941 L 1043.173584 455.406311 L 1158.859741 455.406311 L 1158.859741 261.477661 C 1158.859741 202.958862 1152.054688 178.462524 1131.639526 156.688171 C 1104.419312 129.470032 1079.921021 124.706848 974.442566 124.706848 C 877.81073 124.706848 822.009155 130.831055 794.108337 143.759521 C 756.680542 162.131714 741.028809 187.308411 737.626404 234.259644 Z M 938.37561 319.31604 C 989.413696 319.31604 1008.467773 319.99646 1015.953369 322.718262 C 1029.563599 327.481415 1037.049194 337.007813 1037.049194 349.93631 C 1037.049194 378.515259 1013.231323 386.680725 928.16803 386.680725 C 863.519958 386.680725 845.146423 379.19577 845.146423 353.338654 C 845.146423 326.801025 864.881104 319.31604 938.37561 319.31604 Z"/>
    <path id="m" fill="#ffffff" fill-rule="evenodd" stroke="none" d="M 0.637949 133.552856 L 0.637949 455.406311 L 121.087601 455.406311 L 121.087601 322.718262 C 121.087601 269.643127 125.17067 249.229553 138.780777 235.620544 C 152.3909 222.011536 176.208618 215.887329 212.275436 215.887329 C 246.981232 215.887329 268.076904 221.330994 278.965088 233.579102 C 290.53363 245.827332 291.894653 254.673096 291.894653 305.02652 L 291.894653 455.406311 L 412.344299 455.406311 L 412.344299 322.718262 C 412.344299 270.323547 416.427368 251.270874 430.037476 236.300903 C 442.967133 222.011536 465.423828 215.887329 501.490662 215.887329 C 536.877014 215.887329 557.292114 221.330994 569.541199 233.579102 C 581.109863 245.14679 582.470886 251.270874 583.151428 305.02652 L 583.151428 455.406311 L 703.600952 455.406311 L 703.600952 305.02652 C 703.600952 222.011536 697.476563 195.473877 669.575745 166.894958 C 641.674988 137.635498 602.205505 125.38739 535.515991 125.38739 C 456.57724 125.38739 417.107819 144.440063 396.692688 192.752075 C 370.833374 145.120422 327.961578 125.38739 250.383835 125.38739 C 178.930664 125.38739 138.10022 143.079102 120.407036 181.864868 L 114.282486 181.864868 L 114.282486 133.552856 Z"/>
    <path id="labs" fill="#ffffff" fill-rule="evenodd" stroke="none" d="M 2577.048828 728.309875 C 2577.389404 747.022278 2581.472412 758.249756 2591.339844 767.095642 C 2605.630615 780.36438 2625.705322 783.766724 2684.229004 783.766724 C 2777.458252 783.766724 2799.234619 773.219666 2799.234619 727.289246 C 2799.234619 691.225342 2781.54126 677.616272 2734.926514 677.276062 C 2673.000488 676.935791 2662.452637 676.59552 2652.585205 675.915161 C 2643.058105 675.234741 2638.294678 671.832397 2638.294678 665.368103 C 2638.294678 655.161377 2649.863281 652.099304 2687.631348 652.099304 C 2708.046631 652.099304 2720.295654 653.460205 2725.399658 656.862427 C 2727.440918 658.223389 2728.121338 659.244019 2729.482666 664.347412 L 2790.728271 664.347412 C 2789.367188 644.95459 2786.304688 636.448975 2777.79834 629.644409 C 2764.188232 618.076721 2744.113525 614.6745 2689.332764 614.6745 C 2647.141113 614.6745 2618.900391 617.056091 2605.970459 622.159485 C 2586.916504 629.304199 2578.070068 644.274109 2578.070068 669.110596 C 2578.070068 703.473389 2597.124023 717.762939 2642.718018 718.443359 C 2701.922119 718.443359 2716.893066 718.783569 2725.059082 719.463989 C 2733.906006 720.48468 2739.009521 724.907654 2739.009521 731.371948 C 2739.009521 742.939575 2727.78125 746.341919 2688.6521 746.341919 C 2650.884033 746.341919 2639.315186 742.259155 2638.294678 728.309875 Z M 2342.614746 552.753357 L 2342.614746 779.68396 L 2399.437012 779.68396 L 2399.437012 758.589966 L 2402.499268 758.589966 C 2414.408203 778.66333 2429.719482 783.766724 2474.632813 783.766724 C 2516.143799 783.766724 2538.600586 779.00354 2551.870117 767.095642 C 2565.480713 755.187744 2569.563477 738.856934 2569.563477 698.710266 C 2569.563477 656.862427 2564.800049 641.212158 2549.148438 629.304199 C 2535.197754 618.757202 2512.741455 614.334229 2472.931641 614.334229 C 2432.781982 614.334229 2417.470459 620.118164 2405.561523 640.191467 L 2402.839355 640.191467 L 2402.839355 552.753357 Z M 2456.259277 659.58429 C 2472.591553 659.58429 2487.222168 661.285461 2495.047852 664.007202 C 2505.936035 668.430176 2509.338623 675.915161 2509.338623 697.349365 C 2509.338623 717.422668 2506.956787 726.268555 2500.1521 731.031677 C 2493.687256 735.794861 2479.056152 738.176392 2457.280029 738.176392 C 2441.288086 738.176392 2425.976563 736.475342 2418.490967 734.093689 C 2406.241943 730.011047 2402.839355 722.526062 2402.839355 699.730957 C 2402.839355 678.977234 2405.561523 670.811768 2414.067871 665.708313 C 2420.872803 661.62561 2435.163574 659.58429 2456.259277 659.58429 Z M 2176.230957 669.110596 C 2177.932129 654.480896 2182.355469 653.119995 2225.567627 653.119995 C 2261.974609 653.119995 2266.738281 656.522217 2266.738281 681.698914 L 2266.738281 690.204651 L 2264.016113 690.204651 C 2254.489258 679.997864 2246.322998 677.616272 2218.422119 677.616272 C 2174.189453 677.616272 2158.537598 678.636963 2143.906738 682.719666 C 2120.429199 688.84375 2109.54126 704.834351 2109.54126 733.75354 C 2109.54126 771.858765 2126.213623 783.766724 2179.633545 783.766724 C 2218.762451 783.766724 2234.073975 782.405823 2243.941162 778.323059 C 2254.829346 773.900146 2261.294189 768.116272 2266.397949 757.569336 L 2268.779785 757.569336 L 2268.779785 779.68396 L 2326.622803 779.68396 L 2326.622803 682.719666 C 2326.622803 653.460205 2323.220215 641.212158 2313.012451 630.324829 C 2299.402588 616.71582 2287.153564 614.334229 2234.414307 614.334229 C 2186.098145 614.334229 2158.19751 617.396362 2144.24707 623.860596 C 2125.533203 633.046631 2117.707275 645.63501 2116.006104 669.110596 Z M 2216.380859 711.638794 C 2241.899902 711.638794 2251.426758 711.979004 2255.169678 713.339966 C 2261.974609 715.721497 2265.717285 720.48468 2265.717285 726.948975 C 2265.717285 741.238525 2253.808594 745.321106 2211.276855 745.321106 C 2178.952881 745.321106 2169.766113 741.578613 2169.766113 728.650146 C 2169.766113 715.381287 2179.633545 711.638794 2216.380859 711.638794 Z M 2037.407715 552.753357 L 2037.407715 779.68396 L 2097.632324 779.68396 L 2097.632324 552.753357 Z"/>
</svg>
